<?xml version='1.0' encoding='utf-8'?>
<svg xmlns="http://www.w3.org/2000/svg" width="1254" height="1254" viewBox="0 0 1254 1254" role="img" aria-label="Abstract geometric head with colorful grid">
  <defs><filter id="faceDepth" x="-10%" y="-10%" width="130%" height="130%" color-interpolation-filters="sRGB"><feGaussianBlur in="SourceAlpha" stdDeviation="16" result="blur" /><feOffset in="blur" dx="14" dy="18" result="offsetBlur" /><feComponentTransfer in="offsetBlur" result="shadow"><feFuncA type="linear" slope="0.5" /></feComponentTransfer><feMerge><feMergeNode in="shadow" /><feMergeNode in="SourceGraphic" /></feMerge></filter></defs><rect width="1254" height="1254" fill="black" />
  <g id="color-grid"><rect x="266" y="15" width="259" height="212" fill="rgb(105,229,67)" />
  <rect x="525" y="15" width="239" height="212" fill="rgb(54,202,0)" />
  <rect x="764" y="15" width="238" height="212" fill="rgb(9,158,10)" />
  <rect x="1002" y="15" width="238" height="212" fill="rgb(2,117,16)" />
  <rect x="266" y="227" width="259" height="208" fill="rgb(255,63,20)" />
  <rect x="525" y="227" width="239" height="208" fill="rgb(255,92,19)" />
  <rect x="764" y="227" width="238" height="208" fill="rgb(255,125,20)" />
  <rect x="1002" y="227" width="238" height="208" fill="rgb(255,159,21)" />
  <rect x="266" y="435" width="259" height="207" fill="rgb(255,216,41)" />
  <rect x="525" y="435" width="239" height="207" fill="rgb(255,195,23)" />
  <rect x="764" y="435" width="238" height="207" fill="rgb(255,211,51)" />
  <rect x="1002" y="435" width="238" height="207" fill="rgb(255,237,93)" />
  <rect x="266" y="642" width="259" height="203" fill="rgb(206,139,220)" />
  <rect x="525" y="642" width="239" height="203" fill="rgb(179,99,205)" />
  <rect x="764" y="642" width="238" height="203" fill="rgb(142,49,202)" />
  <rect x="1002" y="642" width="238" height="203" fill="rgb(104,17,193)" />
  <rect x="266" y="845" width="259" height="201" fill="rgb(116,226,255)" />
  <rect x="525" y="845" width="239" height="201" fill="rgb(54,198,255)" />
  <rect x="764" y="845" width="238" height="201" fill="rgb(19,164,255)" />
  <rect x="1002" y="845" width="238" height="201" fill="rgb(0,51,253)" />
  <rect x="266" y="1046" width="259" height="191" fill="rgb(55,197,255)" />
  <rect x="525" y="1046" width="239" height="191" fill="rgb(33,157,255)" />
  <rect x="764" y="1046" width="238" height="191" fill="rgb(16,117,255)" />
  <rect x="1002" y="1046" width="238" height="191" fill="rgb(0,48,188)" />
  </g><g id="face" filter="url(#faceDepth)"><path d="M 0 15 L 265 15 L 268 17 L 277 19 L 284 21 L 290 23 L 296 25 L 301 27 L 305 29 L 310 31 L 314 33 L 318 35 L 322 37 L 325 39 L 328 41 L 332 43 L 335 45 L 338 47 L 341 49 L 343 51 L 346 53 L 348 55 L 351 57 L 353 59 L 356 61 L 358 63 L 360 65 L 362 67 L 364 69 L 367 71 L 368 73 L 370 75 L 372 77 L 374 79 L 376 81 L 377 83 L 379 85 L 381 87 L 382 89 L 384 91 L 385 93 L 387 95 L 388 97 L 390 99 L 391 101 L 392 103 L 394 105 L 395 107 L 396 109 L 398 111 L 399 113 L 400 115 L 401 117 L 402 119 L 403 121 L 404 123 L 405 125 L 406 127 L 407 129 L 408 131 L 409 133 L 410 135 L 411 137 L 412 139 L 413 141 L 414 143 L 414 145 L 415 147 L 416 149 L 417 151 L 417 153 L 418 155 L 419 157 L 419 159 L 420 161 L 421 163 L 421 165 L 422 167 L 422 169 L 423 171 L 423 173 L 424 175 L 424 177 L 425 179 L 425 181 L 426 183 L 426 185 L 427 187 L 427 189 L 428 191 L 428 193 L 429 195 L 429 197 L 430 199 L 430 201 L 431 203 L 431 205 L 432 207 L 432 209 L 433 211 L 433 213 L 434 215 L 434 217 L 434 219 L 435 221 L 435 223 L 436 225 L 436 227 L 437 229 L 437 231 L 438 233 L 438 235 L 439 237 L 439 239 L 440 241 L 440 243 L 441 245 L 441 247 L 441 249 L 442 251 L 442 253 L 443 255 L 443 257 L 444 259 L 444 261 L 445 263 L 445 265 L 446 267 L 446 269 L 447 271 L 447 273 L 448 275 L 448 277 L 448 279 L 449 281 L 449 283 L 450 285 L 450 287 L 451 289 L 451 291 L 452 293 L 452 295 L 453 297 L 453 299 L 454 301 L 454 303 L 455 305 L 455 307 L 456 309 L 456 311 L 456 313 L 457 315 L 457 317 L 458 319 L 458 321 L 459 323 L 459 325 L 460 327 L 460 329 L 461 331 L 461 333 L 462 335 L 462 337 L 463 339 L 463 341 L 463 343 L 464 345 L 464 347 L 465 349 L 465 351 L 466 353 L 466 355 L 467 357 L 467 359 L 468 361 L 468 363 L 469 365 L 469 367 L 469 369 L 470 371 L 470 373 L 471 375 L 471 377 L 472 379 L 472 381 L 473 383 L 473 385 L 474 387 L 474 389 L 475 391 L 475 393 L 476 395 L 476 397 L 477 399 L 477 401 L 478 403 L 478 405 L 478 407 L 479 409 L 479 411 L 480 413 L 480 415 L 481 417 L 481 419 L 482 421 L 482 423 L 482 425 L 483 427 L 483 429 L 484 431 L 484 433 L 485 435 L 485 437 L 486 439 L 486 441 L 487 443 L 487 445 L 488 447 L 488 449 L 488 451 L 489 453 L 489 455 L 490 457 L 490 459 L 491 461 L 491 463 L 492 465 L 492 467 L 492 469 L 493 471 L 493 473 L 494 475 L 494 477 L 495 479 L 495 481 L 496 483 L 496 485 L 497 487 L 497 489 L 497 491 L 498 493 L 498 495 L 499 497 L 499 499 L 500 501 L 500 503 L 501 505 L 501 507 L 502 509 L 502 511 L 503 513 L 503 515 L 503 517 L 504 519 L 504 521 L 505 523 L 505 525 L 506 527 L 506 529 L 507 531 L 507 533 L 508 535 L 508 537 L 508 539 L 509 541 L 509 543 L 510 545 L 510 547 L 511 549 L 511 551 L 512 553 L 512 555 L 513 557 L 513 559 L 513 561 L 514 563 L 514 565 L 515 567 L 515 569 L 516 571 L 516 573 L 517 575 L 517 577 L 518 579 L 518 581 L 519 583 L 519 585 L 519 587 L 520 589 L 520 591 L 521 593 L 521 595 L 522 597 L 522 599 L 523 601 L 523 603 L 524 605 L 524 607 L 524 609 L 525 611 L 525 613 L 526 615 L 526 617 L 527 619 L 527 621 L 528 623 L 528 625 L 528 627 L 529 629 L 529 631 L 530 633 L 530 635 L 531 637 L 531 639 L 532 641 L 532 643 L 533 645 L 533 647 L 533 649 L 534 651 L 534 653 L 535 655 L 535 657 L 536 659 L 536 661 L 537 663 L 537 665 L 538 667 L 538 669 L 538 671 L 539 673 L 539 675 L 540 677 L 540 679 L 541 681 L 541 683 L 542 685 L 542 687 L 543 689 L 543 691 L 543 693 L 544 695 L 544 697 L 545 699 L 545 701 L 546 703 L 546 705 L 547 707 L 547 709 L 547 711 L 548 713 L 548 715 L 549 717 L 549 719 L 550 721 L 550 723 L 551 725 L 551 727 L 552 729 L 552 731 L 552 733 L 553 735 L 553 737 L 554 739 L 554 741 L 555 743 L 555 745 L 556 747 L 556 749 L 557 751 L 557 753 L 558 755 L 558 757 L 559 759 L 559 761 L 559 763 L 560 765 L 560 766 L 420 766 L 420 1237 L 0 1237 Z" fill="black" />
  </g><rect x="257" y="417" width="84" height="84" fill="rgb(255,255,255)" />
</svg>